<svg xmlns="http://www.w3.org/2000/svg" viewBox="0 0 883 375" role="img" aria-label="WiLL">
  <!-- Full WiLL wordmark, traced from logo/bright.png. Standalone copy for OG cards, App Store, press kit. -->
  <g transform="translate(0,375) scale(0.1,-0.1)">
    <g fill="#0A7BFF">
      <path d="M10 3576 c0 -8 18 -70 39 -138 22 -67 54 -170 71 -228 17 -58 55 -181 85 -275 29 -93 90 -291 134 -440 45 -148 92 -304 106 -345 13 -41 74 -239 135 -440 62 -201 159 -516 215 -700 57 -184 107 -347 111 -362 3 -16 10 -28 16 -28 5 0 7 -4 4 -8 -6 -10 28 -125 35 -118 2 2 4 -8 5 -22 1 -32 85 -296 96 -300 4 -2 4 -10 1 -18 -3 -8 0 -14 6 -14 6 0 8 -7 5 -15 -4 -8 -1 -15 6 -15 7 0 9 -8 5 -20 -4 -11 -2 -20 4 -20 6 0 7 -7 4 -17 -4 -11 -3 -14 5 -9 7 4 12 2 12 -3 0 -6 8 -11 18 -11 14 0 15 -2 2 -10 -10 -6 120 -10 377 -10 449 0 398 -12 432 106 10 38 46 159 79 269 33 110 115 382 181 605 199 668 289 970 322 1075 31 101 35 112 64 220 9 33 41 139 71 235 31 96 62 198 69 225 8 28 23 79 34 115 108 355 138 454 177 574 24 76 42 142 38 145 -9 9 -727 12 -742 2 -13 -8 -111 -338 -186 -626 -21 -77 -52 -192 -71 -255 -18 -63 -47 -164 -64 -225 -16 -60 -66 -238 -109 -395 -102 -364 -226 -807 -248 -888 -22 -81 -27 -74 -70 94 -19 76 -68 261 -109 409 -40 149 -97 358 -126 465 -28 107 -87 326 -129 485 -43 160 -101 378 -130 485 -28 107 -68 254 -88 325 l-37 130 -427 3 c-365 2 -428 0 -428 -12z"/>
    </g>
    <g fill="#16181A">
      <path d="M5783 3720 c-298 -97 -354 -504 -95 -677 310 -206 718 61 627 411 -57 218 -302 341 -532 266z"/>
      <path d="M4753 3582 l-401 -2 -15 -48 c-15 -48 -66 -237 -132 -487 -20 -77 -48 -180 -61 -230 -14 -49 -34 -121 -44 -160 -33 -126 -159 -597 -197 -735 -20 -74 -51 -189 -68 -255 -123 -460 -149 -554 -152 -551 -4 4 -43 138 -72 246 -39 149 -111 410 -180 660 -40 140 -87 309 -105 375 -18 66 -56 201 -84 300 -28 99 -70 249 -93 333 -23 84 -45 150 -49 145 -3 -4 -19 -48 -33 -98 -15 -49 -43 -144 -63 -210 -20 -66 -60 -199 -89 -295 -45 -148 -88 -286 -172 -550 -18 -56 -17 -59 47 -265 29 -93 67 -222 85 -285 18 -63 99 -333 179 -600 81 -267 169 -559 197 -650 27 -91 54 -175 59 -188 l10 -22 390 1 391 1 10 21 c5 12 38 117 73 232 171 566 200 660 241 785 54 167 189 607 220 715 13 44 50 166 83 270 33 105 104 334 157 510 53 176 111 367 130 425 18 58 52 168 75 245 23 77 57 188 76 247 40 126 40 123 12 123 -13 0 -204 -1 -425 -3z"/>
      <path d="M6810 1795 l0 -1785 370 2 370 3 3 1783 2 1782 -372 0 -373 0 0 -1785z"/>
      <path d="M8070 1795 l0 -1785 373 2 372 3 3 1783 2 1782 -375 0 -375 0 0 -1785z"/>
      <path d="M5560 1331 l0 -1319 368 3 367 3 3 1316 2 1316 -370 0 -370 0 0 -1319z"/>
    </g>
  </g>
</svg>
